<svg id="Group_53875" data-name="Group 53875" xmlns="http://www.w3.org/2000/svg" xmlns:xlink="http://www.w3.org/1999/xlink" width="101.078" height="64.087" viewBox="0 0 101.078 64.087">
  <defs>
    <clipPath id="clip-path">
      <rect id="Rectangle_87993" data-name="Rectangle 87993" width="101.078" height="64.087" fill="none"/>
    </clipPath>
  </defs>
  <g id="Group_53875-2" data-name="Group 53875" clip-path="url(#clip-path)">
    <path id="Path_22309" data-name="Path 22309" d="M24.141,113.986c0,1.771,1.471,2.886,3.954,2.886a9.157,9.157,0,0,0,2.334-.285v1.683a12.865,12.865,0,0,1-2.738.268c-3.266,0-5.317-1.115-6.112-2.765v2.621H18.993v-6.363h-.036l-3.086,6.363H13.741l-3.084-6.3h-.033v6.3H7.855v-3.877H2.766v3.877H0v-8.977H2.766v3.442h5.09v-3.442h4.072l2.941,6.173H14.9l2.784-6.173h3.892v2.963c.921-1.928,3.421-2.973,6.387-2.973a11.872,11.872,0,0,1,2.464.235v1.732a7.991,7.991,0,0,0-2.353-.327c-2.207,0-3.936.956-3.936,2.938m9.61-4.568v8.977h2.767v-3.219H38a7.136,7.136,0,0,0,2.01-.247,4.032,4.032,0,0,0,1.346-.648,2.442,2.442,0,0,0,.757-.922,2.489,2.489,0,0,0,0-2.131,2.47,2.47,0,0,0-.757-.918,4.068,4.068,0,0,0-1.346-.647,7.093,7.093,0,0,0-2.01-.245Zm2.767,4.218v-2.682h.724a8.227,8.227,0,0,1,.914.05,2.756,2.756,0,0,1,.775.195,1.306,1.306,0,0,1,.535.406,1.268,1.268,0,0,1,0,1.379,1.319,1.319,0,0,1-.535.408,2.74,2.74,0,0,1-.775.193,8,8,0,0,1-.914.05Zm10.1,4.9c2.392,0,4.729-1.076,4.729-3.411,0-1.944-1.84-3.294-4.58-3.294-2.906,0-4.821,1.327-4.821,3.4s2.023,3.306,4.654,3.306Zm.018-1.43a1.8,1.8,0,1,1,.019,0ZM52,118.395h2.679v-8.927H52Zm9.895-6.415-1.983,3.8-1.981-3.8H55.2l3.343,6.415-1.67,3.209H59.6l5.012-9.624Zm13.842-.146a4.551,4.551,0,0,0-1.71.315,3.728,3.728,0,0,0-1.178.787h-.037a2.743,2.743,0,0,0-2.464-1.1,3.512,3.512,0,0,0-2.724,1.025h-.055l-.111-.879h-2.3v6.415h2.722v-3.727a1.025,1.025,0,0,1,.11-.512,1.436,1.436,0,0,1,1.306-.707A1.2,1.2,0,0,1,70.6,114.8v3.595h2.722v-3.753a1.525,1.525,0,0,1,.092-.5,1.413,1.413,0,0,1,1.307-.694c.9,0,1.324.537,1.324,1.469v3.477h2.722v-3.778c0-1.917-1.306-2.783-3.035-2.783m12.013,3.99a3.541,3.541,0,0,0,.093-.8c0-1.587-1.1-3.2-4.01-3.2-3.109,0-4.546,1.8-4.546,3.426,0,2.019,1.749,3.279,4.8,3.279a11.635,11.635,0,0,0,3.258-.406l-.37-1.351a10.231,10.231,0,0,1-2.483.275c-1.306,0-2.447-.395-2.536-1.234Zm-5.813-1.378a1.607,1.607,0,0,1,1.748-1.3c1.269,0,1.563.823,1.563,1.3Zm16.72.039c-1.105-.275-1.453-.434-1.453-.749s.387-.51,1.065-.51a6.352,6.352,0,0,1,1.951.353v-1.507a8.737,8.737,0,0,0-2.044-.238c-2.223,0-3.659.907-3.659,2.113-.017.747.7,1.482,2.575,1.914,1.03.251,1.307.407,1.307.748s-.35.526-1.195.526a7.165,7.165,0,0,1-2.41-.473v1.576a9.346,9.346,0,0,0,2.41.3c2.575,0,3.88-.878,3.88-2.086-.019-.931-.716-1.561-2.427-1.967m-5.232-2.651a2.675,2.675,0,0,0-2.428,1.339h-.073l-.111-1.194H88.47v6.415h2.8v-3.239a1.613,1.613,0,0,1,.053-.447c.185-.631.884-1.01,1.914-1.01a6.354,6.354,0,0,1,.773.052v-1.876a3.727,3.727,0,0,0-.589-.04" transform="translate(0 -57.516)" fill="#13487d"/>
    <path id="Path_22310" data-name="Path 22310" d="M80.786,0a23.406,23.406,0,0,0-23.14,27.475c.36-.471,4.254-5.547,5.67-7.4a.579.579,0,0,1,1.024,0c1.028,1.341,3.285,4.283,3.764,4.911A12.122,12.122,0,0,1,68,23.493a12.79,12.79,0,0,1,25.579,0,12.465,12.465,0,0,1-.108,1.492c.48-.625,2.731-3.563,3.759-4.9a.579.579,0,0,1,1.024-.007c1.415,1.844,5.313,6.93,5.674,7.4A23.4,23.4,0,0,0,80.786,0" transform="translate(-30.117 0.001)" fill="#bfebfb"/>
    <path id="Path_22311" data-name="Path 22311" d="M86.2,44.329c.211-.277,6.141-8.013,7.947-10.37a.579.579,0,0,1,1.033,0c1.805,2.354,7.741,10.1,7.952,10.374a10.976,10.976,0,1,0-16.932,0" transform="translate(-43.994 -13.874)" fill="#80d6f7"/>
    <path id="Path_22312" data-name="Path 22312" d="M90.17,48.875a.916.916,0,0,0-1.619,0C85.369,53.022,73.9,67.98,73.564,68.426H88.239c.1-.126,8.512-10.977,8.511-10.973-.12-.156-4.679-6.1-6.579-8.578" transform="translate(-38.673 -25.437)" fill="#00aeef"/>
    <path id="Path_22313" data-name="Path 22313" d="M54.407,48.875a.916.916,0,0,0-1.619,0C49.606,53.022,38.141,67.98,37.8,68.426H52.477c.1-.126,8.512-10.977,8.51-10.973-.119-.156-4.679-6.1-6.58-8.578" transform="translate(-19.872 -25.437)" fill="#00aeef"/>
    <path id="Path_22314" data-name="Path 22314" d="M125.875,48.883a.925.925,0,0,0-1.612,0c-3.176,4.143-14.652,19.113-14.991,19.559l31.607.031c-.341-.446-11.822-15.434-15-19.586" transform="translate(-57.444 -25.449)" fill="#00aeef"/>
  </g>
</svg>
